<svg xmlns="http://www.w3.org/2000/svg" width="256" height="256" viewBox="0 0 256 256">
  <defs>
    <linearGradient id="bg" x1="0" y1="0" x2="1" y2="1">
      <stop stop-color="#1674df"/><stop offset="1" stop-color="#103774"/>
    </linearGradient>
    <linearGradient id="plug" x1="0" y1="0" x2="0" y2="1">
      <stop stop-color="#ffffff"/><stop offset="1" stop-color="#d4e7fc"/>
    </linearGradient>
  </defs>
  <rect x="8" y="8" width="240" height="240" rx="52" fill="url(#bg)"/>
  <path d="M111 170h34v64h-34z" fill="#092c60" opacity=".5"/>
  <path d="M113 164h30v68h-30z" fill="#b6d7fa"/>
  <path d="M62 47h132v92l-23 23v23H85v-23l-23-23z" fill="#06254b" opacity=".3" transform="translate(0 7)"/>
  <path d="M62 43h132v92l-23 23v23H85v-23l-23-23z" fill="url(#plug)"/>
  <path d="M73 53h110v45H73z" fill="#143f6c"/>
  <g fill="#ffcc56">
    <path d="M77 54h9v37h-9z"/><path d="M90 54h9v37h-9z"/>
    <path d="M103 54h9v37h-9z"/><path d="M116 54h9v37h-9z"/>
    <path d="M129 54h9v37h-9z"/><path d="M142 54h9v37h-9z"/>
    <path d="M155 54h9v37h-9z"/><path d="M168 54h9v37h-9z"/>
  </g>
  <path d="M81 112h94v16l-18 18H99l-18-18z" fill="#85b8ed"/>
  <path d="M111 110h34v48h-34z" fill="#f7fbff" stroke="#4a8bc8" stroke-width="5" stroke-linejoin="round"/>
  <path d="M100 166h56" stroke="#6b9ed2" stroke-width="6" stroke-linecap="round"/>
</svg>
